<mxfile host="65bd71144e">
    <diagram name="Page-1" id="929967ad-93f9-6ef4-fab6-5d389245f69c">
        <mxGraphModel dx="1556" dy="338" grid="0" gridSize="10" guides="1" tooltips="1" connect="1" arrows="1" fold="1" page="1" pageScale="1.5" pageWidth="1169" pageHeight="826" background="#141414" math="0" shadow="0">
            <root>
                <mxCell id="0" style=";html=1;"/>
                <mxCell id="1" style=";html=1;" parent="0"/>
                <mxCell id="1672d66443f91eb5-23" value="&lt;font color=&quot;#ffffff&quot;&gt;Personal Portfolio Site Diagram&lt;/font&gt;" style="text;html=1;fontSize=24;fontStyle=1;verticalAlign=middle;align=center;" parent="1" vertex="1">
                    <mxGeometry x="120" y="40" width="1510" height="40" as="geometry"/>
                </mxCell>
                <mxCell id="I3EDX4jBu8Ln861fsa6N-10" style="edgeStyle=orthogonalEdgeStyle;rounded=0;orthogonalLoop=1;jettySize=auto;html=1;entryX=0.5;entryY=0;entryDx=0;entryDy=0;strokeColor=#FFFFFF;" parent="1" source="XCRQBAGbuWee2OxwCd0X-1" target="6zt7Fhe0QMiv9Hf3yPAy-8" edge="1">
                    <mxGeometry relative="1" as="geometry">
                        <mxPoint x="1524" y="294" as="targetPoint"/>
                        <Array as="points">
                            <mxPoint x="961" y="290"/>
                            <mxPoint x="1367" y="291"/>
                        </Array>
                    </mxGeometry>
                </mxCell>
                <mxCell id="I3EDX4jBu8Ln861fsa6N-16" style="edgeStyle=orthogonalEdgeStyle;rounded=0;orthogonalLoop=1;jettySize=auto;html=1;entryX=0.5;entryY=0;entryDx=0;entryDy=0;strokeColor=#FFFFFF;" parent="1" source="XCRQBAGbuWee2OxwCd0X-1" target="XCRQBAGbuWee2OxwCd0X-4" edge="1">
                    <mxGeometry relative="1" as="geometry">
                        <mxPoint x="199.72727272727252" y="305.45454545454527" as="targetPoint"/>
                    </mxGeometry>
                </mxCell>
                <mxCell id="I3EDX4jBu8Ln861fsa6N-18" style="edgeStyle=orthogonalEdgeStyle;rounded=0;orthogonalLoop=1;jettySize=auto;html=1;entryX=0.5;entryY=0;entryDx=0;entryDy=0;strokeColor=#FFFFFF;" parent="1" source="XCRQBAGbuWee2OxwCd0X-1" edge="1">
                    <mxGeometry relative="1" as="geometry">
                        <mxPoint x="1146.5" y="417.5" as="targetPoint"/>
                    </mxGeometry>
                </mxCell>
                <mxCell id="I3EDX4jBu8Ln861fsa6N-20" style="edgeStyle=orthogonalEdgeStyle;rounded=0;orthogonalLoop=1;jettySize=auto;html=1;strokeColor=#FFFFFF;" parent="1" source="XCRQBAGbuWee2OxwCd0X-1" target="I3EDX4jBu8Ln861fsa6N-4" edge="1">
                    <mxGeometry relative="1" as="geometry"/>
                </mxCell>
                <mxCell id="XCRQBAGbuWee2OxwCd0X-1" value="" style="rounded=1;whiteSpace=wrap;html=1;fillColor=none;arcSize=12;strokeColor=#FFFFFF;" parent="1" vertex="1">
                    <mxGeometry x="731" y="200" width="278" height="182" as="geometry"/>
                </mxCell>
                <mxCell id="XCRQBAGbuWee2OxwCd0X-3" value="&lt;p style=&quot;line-height: 70%;&quot;&gt;&lt;/p&gt;&lt;h1 style=&quot;line-height: 60%;&quot;&gt;&lt;font color=&quot;#ffffff&quot;&gt;Landing Page&lt;/font&gt;&lt;/h1&gt;&lt;div style=&quot;line-height: 60%;&quot;&gt;&lt;font color=&quot;#ffffff&quot;&gt;index.html&lt;/font&gt;&lt;/div&gt;&lt;p&gt;&lt;font color=&quot;#ffffff&quot;&gt;Holds main content and primary&amp;nbsp; navigation to other pages&lt;/font&gt;&lt;/p&gt;&lt;p&gt;&lt;/p&gt;" style="text;html=1;strokeColor=none;fillColor=none;spacing=5;spacingTop=-20;whiteSpace=wrap;overflow=hidden;rounded=0;" parent="1" vertex="1">
                    <mxGeometry x="767" y="224" width="190" height="120" as="geometry"/>
                </mxCell>
                <mxCell id="XCRQBAGbuWee2OxwCd0X-4" value="" style="rounded=1;whiteSpace=wrap;html=1;fillColor=none;arcSize=12;strokeColor=#FFFFFF;" parent="1" vertex="1">
                    <mxGeometry x="456" y="414" width="232" height="182" as="geometry"/>
                </mxCell>
                <mxCell id="XCRQBAGbuWee2OxwCd0X-7" value="&lt;p style=&quot;line-height: 70%;&quot;&gt;&lt;/p&gt;&lt;h1 style=&quot;line-height: 60%;&quot;&gt;&lt;font color=&quot;#ffffff&quot;&gt;About Page&lt;/font&gt;&lt;/h1&gt;&lt;div style=&quot;line-height: 60%;&quot;&gt;&lt;font color=&quot;#ffffff&quot;&gt;aboutme.html&lt;/font&gt;&lt;/div&gt;&lt;p&gt;&lt;br&gt;&lt;/p&gt;&lt;p&gt;&lt;/p&gt;" style="text;html=1;strokeColor=none;fillColor=none;spacing=5;spacingTop=-20;whiteSpace=wrap;overflow=hidden;rounded=0;" parent="1" vertex="1">
                    <mxGeometry x="482" y="441.5" width="190" height="55.5" as="geometry"/>
                </mxCell>
                <mxCell id="5" style="edgeStyle=none;html=1;entryX=0;entryY=0.5;entryDx=0;entryDy=0;strokeColor=#FFFFFF;" parent="1" source="6zt7Fhe0QMiv9Hf3yPAy-1" target="4" edge="1">
                    <mxGeometry relative="1" as="geometry"/>
                </mxCell>
                <mxCell id="6zt7Fhe0QMiv9Hf3yPAy-1" value="" style="rounded=1;whiteSpace=wrap;html=1;fillColor=none;arcSize=12;strokeColor=#FFFFFF;" parent="1" vertex="1">
                    <mxGeometry x="892" y="659" width="211" height="146" as="geometry"/>
                </mxCell>
                <mxCell id="6zt7Fhe0QMiv9Hf3yPAy-8" value="" style="rounded=1;whiteSpace=wrap;html=1;fillColor=none;arcSize=12;strokeColor=#FFFFFF;" parent="1" vertex="1">
                    <mxGeometry x="1322" y="417.5" width="216" height="182" as="geometry"/>
                </mxCell>
                <mxCell id="6zt7Fhe0QMiv9Hf3yPAy-9" value="&lt;p style=&quot;line-height: 70%;&quot;&gt;&lt;/p&gt;&lt;h1 style=&quot;line-height: 100%;&quot;&gt;&lt;font color=&quot;#ffffff&quot;&gt;Art Page&lt;/font&gt;&lt;/h1&gt;&lt;p&gt;&lt;/p&gt;" style="text;html=1;strokeColor=none;fillColor=none;spacing=5;spacingTop=-20;whiteSpace=wrap;overflow=hidden;rounded=0;" parent="1" vertex="1">
                    <mxGeometry x="1348.5" y="431.5" width="195" height="38.5" as="geometry"/>
                </mxCell>
                <mxCell id="6zt7Fhe0QMiv9Hf3yPAy-10" value="&lt;font color=&quot;#ffffff&quot;&gt;A fun page to share my creativity. This will be a gallery similar to tumblr&lt;/font&gt;" style="text;html=1;strokeColor=none;fillColor=none;align=left;verticalAlign=middle;whiteSpace=wrap;rounded=0;" parent="1" vertex="1">
                    <mxGeometry x="1348.5" y="498" width="171.5" height="52" as="geometry"/>
                </mxCell>
                <mxCell id="6zt7Fhe0QMiv9Hf3yPAy-11" value="&lt;font color=&quot;#ffffff&quot;&gt;myart.html&lt;/font&gt;" style="text;html=1;strokeColor=none;fillColor=none;align=left;verticalAlign=middle;whiteSpace=wrap;rounded=0;" parent="1" vertex="1">
                    <mxGeometry x="1351" y="461" width="93" height="21" as="geometry"/>
                </mxCell>
                <mxCell id="6zt7Fhe0QMiv9Hf3yPAy-17" value="" style="rounded=1;whiteSpace=wrap;html=1;fillColor=none;arcSize=12;strokeColor=#FFFFFF;" parent="1" vertex="1">
                    <mxGeometry x="1037" y="417.5" width="233" height="182" as="geometry"/>
                </mxCell>
                <mxCell id="6zt7Fhe0QMiv9Hf3yPAy-18" value="&lt;p style=&quot;line-height: 70%;&quot;&gt;&lt;/p&gt;&lt;h1 style=&quot;line-height: 100%;&quot;&gt;&lt;span style=&quot;color: rgb(255, 255, 255); background-color: initial;&quot;&gt;Dev Projects Page&lt;/span&gt;&lt;/h1&gt;&lt;h1 style=&quot;line-height: 60%;&quot;&gt;&lt;br&gt;&lt;/h1&gt;&lt;p&gt;&lt;/p&gt;" style="text;html=1;strokeColor=none;fillColor=none;spacing=5;spacingTop=-20;whiteSpace=wrap;overflow=hidden;rounded=0;" parent="1" vertex="1">
                    <mxGeometry x="1054.5" y="431.5" width="195" height="63" as="geometry"/>
                </mxCell>
                <mxCell id="6zt7Fhe0QMiv9Hf3yPAy-19" value="&lt;font color=&quot;#ffffff&quot;&gt;Showcases some of my dev projects over the years&lt;/font&gt;" style="text;html=1;strokeColor=none;fillColor=none;align=left;verticalAlign=middle;whiteSpace=wrap;rounded=0;" parent="1" vertex="1">
                    <mxGeometry x="1058.5" y="522.5" width="214" height="52" as="geometry"/>
                </mxCell>
                <mxCell id="6zt7Fhe0QMiv9Hf3yPAy-20" value="&lt;font color=&quot;#ffffff&quot;&gt;devprojects.html&lt;/font&gt;" style="text;html=1;strokeColor=none;fillColor=none;align=left;verticalAlign=middle;whiteSpace=wrap;rounded=0;" parent="1" vertex="1">
                    <mxGeometry x="1058.5" y="494.5" width="93" height="21" as="geometry"/>
                </mxCell>
                <mxCell id="6zt7Fhe0QMiv9Hf3yPAy-22" value="&lt;p style=&quot;line-height: 70%;&quot;&gt;&lt;/p&gt;&lt;h1 style=&quot;line-height: 100%;&quot;&gt;&lt;font color=&quot;#ffffff&quot;&gt;media&lt;/font&gt;&lt;/h1&gt;&lt;p&gt;&lt;/p&gt;" style="text;html=1;strokeColor=none;fillColor=none;spacing=5;spacingTop=-20;whiteSpace=wrap;overflow=hidden;rounded=0;" parent="1" vertex="1">
                    <mxGeometry x="922.5" y="675" width="101.5" height="33" as="geometry"/>
                </mxCell>
                <mxCell id="6zt7Fhe0QMiv9Hf3yPAy-23" value="&lt;font color=&quot;#ffffff&quot;&gt;Hold the media files for images, svgs, etc&lt;/font&gt;" style="text;html=1;strokeColor=none;fillColor=none;align=left;verticalAlign=middle;whiteSpace=wrap;rounded=0;" parent="1" vertex="1">
                    <mxGeometry x="926" y="704" width="160" height="52" as="geometry"/>
                </mxCell>
                <mxCell id="6zt7Fhe0QMiv9Hf3yPAy-34" value="&lt;font color=&quot;#ffffff&quot;&gt;A page to share more about myself, education, skills, and links to other websites&lt;/font&gt;" style="text;html=1;strokeColor=none;fillColor=none;align=left;verticalAlign=middle;whiteSpace=wrap;rounded=0;" parent="1" vertex="1">
                    <mxGeometry x="484" y="513" width="166" height="30" as="geometry"/>
                </mxCell>
                <mxCell id="I3EDX4jBu8Ln861fsa6N-29" style="edgeStyle=orthogonalEdgeStyle;rounded=0;orthogonalLoop=1;jettySize=auto;html=1;entryX=0;entryY=0.5;entryDx=0;entryDy=0;strokeColor=#FFFFFF;" parent="1" source="I3EDX4jBu8Ln861fsa6N-4" target="I3EDX4jBu8Ln861fsa6N-26" edge="1">
                    <mxGeometry relative="1" as="geometry">
                        <mxPoint x="870" y="917.4869384765625" as="targetPoint"/>
                    </mxGeometry>
                </mxCell>
                <mxCell id="I3EDX4jBu8Ln861fsa6N-30" style="edgeStyle=orthogonalEdgeStyle;rounded=0;orthogonalLoop=1;jettySize=auto;html=1;entryX=0;entryY=0.5;entryDx=0;entryDy=0;strokeColor=#FFFFFF;" parent="1" source="I3EDX4jBu8Ln861fsa6N-4" target="6zt7Fhe0QMiv9Hf3yPAy-1" edge="1">
                    <mxGeometry relative="1" as="geometry"/>
                </mxCell>
                <mxCell id="I3EDX4jBu8Ln861fsa6N-4" value="" style="rounded=1;whiteSpace=wrap;html=1;fillColor=none;arcSize=12;strokeColor=#FFFFFF;" parent="1" vertex="1">
                    <mxGeometry x="761.75" y="417.5" width="216.5" height="146" as="geometry"/>
                </mxCell>
                <mxCell id="I3EDX4jBu8Ln861fsa6N-21" value="&lt;p style=&quot;line-height: 70%;&quot;&gt;&lt;/p&gt;&lt;h1 style=&quot;line-height: 100%;&quot;&gt;&lt;font color=&quot;#ffffff&quot;&gt;assets&lt;/font&gt;&lt;/h1&gt;&lt;p&gt;&lt;/p&gt;" style="text;html=1;strokeColor=none;fillColor=none;spacing=5;spacingTop=-20;whiteSpace=wrap;overflow=hidden;rounded=0;" parent="1" vertex="1">
                    <mxGeometry x="834" y="438.25" width="85" height="40.5" as="geometry"/>
                </mxCell>
                <mxCell id="I3EDX4jBu8Ln861fsa6N-25" value="&lt;font color=&quot;#ffffff&quot;&gt;folder to hold assets including svgs, images, videos, etc&lt;/font&gt;" style="text;html=1;strokeColor=none;fillColor=none;align=left;verticalAlign=middle;whiteSpace=wrap;rounded=0;" parent="1" vertex="1">
                    <mxGeometry x="792.58" y="497.75" width="144" height="40.5" as="geometry"/>
                </mxCell>
                <mxCell id="I3EDX4jBu8Ln861fsa6N-26" value="" style="rounded=1;whiteSpace=wrap;html=1;fillColor=none;arcSize=12;strokeColor=#FFFFFF;" parent="1" vertex="1">
                    <mxGeometry x="893.25" y="826" width="211" height="146" as="geometry"/>
                </mxCell>
                <mxCell id="I3EDX4jBu8Ln861fsa6N-27" value="&lt;p style=&quot;line-height: 70%;&quot;&gt;&lt;/p&gt;&lt;h1 style=&quot;line-height: 100%;&quot;&gt;&lt;font color=&quot;#ffffff&quot;&gt;scripts&lt;/font&gt;&lt;/h1&gt;&lt;p&gt;&lt;/p&gt;" style="text;html=1;strokeColor=none;fillColor=none;spacing=5;spacingTop=-20;whiteSpace=wrap;overflow=hidden;rounded=0;" parent="1" vertex="1">
                    <mxGeometry x="923.75" y="842" width="195" height="33" as="geometry"/>
                </mxCell>
                <mxCell id="I3EDX4jBu8Ln861fsa6N-28" value="&lt;font color=&quot;#ffffff&quot;&gt;Will include a few scripts rendered in a canvas for interactivity with my projects&lt;/font&gt;" style="text;html=1;strokeColor=none;fillColor=none;align=left;verticalAlign=middle;whiteSpace=wrap;rounded=0;" parent="1" vertex="1">
                    <mxGeometry x="927.25" y="871" width="160" height="52" as="geometry"/>
                </mxCell>
                <mxCell id="2" value="" style="sketch=0;pointerEvents=1;shadow=0;dashed=0;html=1;strokeColor=none;labelPosition=center;verticalLabelPosition=bottom;verticalAlign=top;outlineConnect=0;align=center;shape=mxgraph.office.concepts.folder;fillColor=#CCCBCB;" parent="1" vertex="1">
                    <mxGeometry x="790" y="440.5" width="33.89" height="30.5" as="geometry"/>
                </mxCell>
                <mxCell id="4" value="" style="rounded=1;whiteSpace=wrap;html=1;fillColor=none;arcSize=12;strokeColor=#FFFFFF;" parent="1" vertex="1">
                    <mxGeometry x="1128" y="659" width="211" height="146" as="geometry"/>
                </mxCell>
                <mxCell id="9" value="&lt;p style=&quot;line-height: 70%;&quot;&gt;&lt;/p&gt;&lt;h1 style=&quot;line-height: 100%;&quot;&gt;&lt;font color=&quot;#ffffff&quot;&gt;writeup&lt;/font&gt;&lt;/h1&gt;&lt;p&gt;&lt;/p&gt;" style="text;html=1;strokeColor=none;fillColor=none;spacing=5;spacingTop=-20;whiteSpace=wrap;overflow=hidden;rounded=0;" parent="1" vertex="1">
                    <mxGeometry x="1144" y="675" width="101.5" height="33" as="geometry"/>
                </mxCell>
                <mxCell id="10" value="&lt;font color=&quot;#ffffff&quot;&gt;assets for project design documentation (wireframes, site diagram, and writeup)&lt;/font&gt;" style="text;html=1;strokeColor=none;fillColor=none;align=left;verticalAlign=middle;whiteSpace=wrap;rounded=0;" parent="1" vertex="1">
                    <mxGeometry x="1151.5" y="713" width="160" height="52" as="geometry"/>
                </mxCell>
            </root>
        </mxGraphModel>
    </diagram>
</mxfile>